<svg width="13" height="16" xmlns="http://www.w3.org/2000/svg" fill="none">
	<g>
		<title>Layer 1</title>
		<path id="svg_1" fill="#76B926"
			d="m6.41342,0c-3.53543,0 -6.41342,2.87799 -6.41342,6.41342c0,0.40251 0.0369,0.80838 0.11405,1.20419c0.00335,0.02348 0.01677,0.09392 0.0436,0.21467c0.09728,0.43271 0.24151,0.85871 0.42935,1.26458c0.69099,1.62684 2.21049,4.12574 5.54466,6.80254c0.08386,0.0671 0.18448,0.1006 0.28511,0.1006c0.10063,0 0.20126,-0.0335 0.28512,-0.1006c3.33079,-2.6768 4.85369,-5.1757 5.54469,-6.80254c0.1878,-0.40587 0.332,-0.82852 0.4293,-1.26458c0.0268,-0.12075 0.0403,-0.19119 0.0436,-0.21467c0.0738,-0.39581 0.1141,-0.80168 0.1141,-1.20419c-0.0067,-3.53543 -2.8847,-6.41342 -6.42016,-6.41342zm5.40716,7.45996c0,0.00671 -0.0034,0.01341 -0.0034,0.02012c-0.0033,0.01678 -0.0134,0.06709 -0.0302,0.14424c0,0.00335 0,0.00335 0,0.00671c-0.0838,0.37568 -0.2079,0.7413 -0.3723,1.0935c-0.0034,0.00335 -0.0034,0.01006 -0.0067,0.01342c-0.6273,1.48595 -2.0025,3.75345 -4.99456,6.22555c-2.99203,-2.4721 -4.3673,-4.7396 -4.99455,-6.22555c-0.00336,-0.00336 -0.00335,-0.01007 -0.00671,-0.01342c-0.16101,-0.34885 -0.28511,-0.71782 -0.37233,-1.0935c0,-0.00336 0,-0.00336 0,-0.00671c-0.02012,-0.07715 -0.02683,-0.12746 -0.03018,-0.14424c0,-0.00671 -0.00336,-0.01341 -0.00336,-0.02348c-0.06709,-0.34549 -0.10063,-0.69434 -0.10063,-1.04654c0,-3.03564 2.47212,-5.50775 5.50776,-5.50775c3.03566,0 5.50776,2.47211 5.50776,5.50775c0,0.35556 -0.0335,0.70776 -0.1006,1.0499z" />
		<path id="svg_2" fill="#76B926"
			d="m6.41343,2.41174c-2.24403,0 -4.07212,1.82809 -4.07212,4.07211c0,2.24402 1.82809,4.07215 4.07212,4.07215c2.24405,0 4.07215,-1.82813 4.07215,-4.07215c0,-2.24402 -1.8281,-4.07211 -4.07215,-4.07211zm0,7.23856c-1.74759,0 -3.16646,-1.42222 -3.16646,-3.16645c0,-1.74423 1.42222,-3.16645 3.16646,-3.16645c1.74423,0 3.16645,1.42222 3.16645,3.16645c0,1.74423 -1.41886,3.16645 -3.16645,3.16645z" />
	</g>
</svg>