<svg width="20" height="12" xmlns="http://www.w3.org/2000/svg" fill="none">
	<defs>
		<clipPath id="clip0_2205_704">
			<rect id="svg_1" x="0" y="0.43726" fill="white" height="20" width="20" />
		</clipPath>
	</defs>
	<g>
		<title>Layer 1</title>
		<g id="svg_2" clip-path="url(#clip0_2205_704)">
			<path id="svg_3" fill="#4B729F"
				d="m16.5958,6.69c-0.3233,-0.4083 -0.2308,-0.59 0,-0.955c0.0042,-0.0042 2.6734,-3.6925 2.9484,-4.94333l0.0016,-0.00083c0.1367,-0.45584 0,-0.79084 -0.6608,-0.79084l-2.1867,0c-0.5566,0 -0.8133,0.2875 -0.9508,0.60917c0,0 -1.1133,2.665 -2.6883,4.3925c-0.5084,0.49913 -0.7434,0.65913 -1.0209,0.65913c-0.1366,0 -0.3491,-0.16 -0.3491,-0.6158l0,-4.25416c0,-0.54667 -0.1559,-0.79084 -0.6167,-0.79084l-3.43833,0c-0.34917,0 -0.55667,0.255 -0.55667,0.4925c0,0.51834 0.7875,0.6375 0.86917,2.09584l0,3.16416c0,0.6933 -0.12584,0.8208 -0.405,0.8208c-0.74334,0 -2.5475,-2.6758 -3.61667,-5.7383c-0.21583,-0.59416 -0.42667,-0.83416 -0.9875,-0.83416l-2.1875,0c-0.62417,0 -0.75,0.2875 -0.75,0.60916c0,0.56834 0.74333,3.39417 3.45667,7.1275c1.80833,2.5483 4.355,3.9292 6.67163,3.9292c1.3925,0 1.5625,-0.3067 1.5625,-0.8342c0,-2.435 -0.1258,-2.665 0.5717,-2.665c0.3233,0 0.88,0.16 2.18,1.3892c1.4858,1.4575 1.73,2.11 2.5617,2.11l2.1866,0c0.6234,0 0.9392,-0.3067 0.7575,-0.9117c-0.4158,-1.2725 -3.2258,-3.89 -3.3525,-4.065z" />
		</g>
	</g>
</svg>